<mxfile host="app.diagrams.net" modified="2020-08-14T08:36:37.195Z" agent="5.0 (Macintosh; Intel Mac OS X 10_15_4) AppleWebKit/537.36 (KHTML, like Gecko) Chrome/81.0.4044.138 Safari/537.36" etag="MInWO2l7Dxiq-FpWzHYr" version="13.6.2" type="github">
  <diagram id="CLXN-4MDyRrbkYTzUW4q" name="Page-1">
    <mxGraphModel dx="579" dy="523" grid="1" gridSize="10" guides="1" tooltips="1" connect="1" arrows="1" fold="1" page="1" pageScale="1" pageWidth="850" pageHeight="1100" math="0" shadow="0">
      <root>
        <mxCell id="0" />
        <mxCell id="1" parent="0" />
        <mxCell id="OQLOy8tEcqYqoxx-tOox-1" value="&lt;font style=&quot;font-size: 20px&quot;&gt;Hi3559A&lt;br&gt;&amp;nbsp;监控和媒体&lt;br&gt;处理器&lt;/font&gt;" style="rounded=0;whiteSpace=wrap;html=1;fillColor=#fff2cc;strokeColor=#d6b656;" vertex="1" parent="1">
          <mxGeometry x="313" y="380" width="145" height="170" as="geometry" />
        </mxCell>
        <mxCell id="OQLOy8tEcqYqoxx-tOox-27" value="" style="edgeStyle=orthogonalEdgeStyle;rounded=0;orthogonalLoop=1;jettySize=auto;html=1;startArrow=none;startFill=0;" edge="1" parent="1" source="OQLOy8tEcqYqoxx-tOox-4">
          <mxGeometry relative="1" as="geometry">
            <mxPoint x="313" y="410" as="targetPoint" />
          </mxGeometry>
        </mxCell>
        <mxCell id="OQLOy8tEcqYqoxx-tOox-4" value="多路IP 摄像头 数据流" style="text;html=1;strokeColor=none;fillColor=none;align=right;verticalAlign=middle;whiteSpace=wrap;rounded=0;" vertex="1" parent="1">
          <mxGeometry x="160" y="400" width="119" height="20" as="geometry" />
        </mxCell>
        <mxCell id="OQLOy8tEcqYqoxx-tOox-28" value="" style="edgeStyle=orthogonalEdgeStyle;rounded=0;orthogonalLoop=1;jettySize=auto;html=1;startArrow=none;startFill=0;entryX=0.007;entryY=0.412;entryDx=0;entryDy=0;entryPerimeter=0;" edge="1" parent="1" source="OQLOy8tEcqYqoxx-tOox-8" target="OQLOy8tEcqYqoxx-tOox-1">
          <mxGeometry relative="1" as="geometry" />
        </mxCell>
        <mxCell id="OQLOy8tEcqYqoxx-tOox-8" value="外部USB储存 数据文件" style="text;html=1;strokeColor=none;fillColor=none;align=right;verticalAlign=middle;whiteSpace=wrap;rounded=0;" vertex="1" parent="1">
          <mxGeometry x="140" y="440" width="140" height="20" as="geometry" />
        </mxCell>
        <mxCell id="OQLOy8tEcqYqoxx-tOox-16" value="" style="edgeStyle=orthogonalEdgeStyle;rounded=0;orthogonalLoop=1;jettySize=auto;html=1;startArrow=classic;startFill=1;" edge="1" parent="1" source="OQLOy8tEcqYqoxx-tOox-14">
          <mxGeometry relative="1" as="geometry">
            <mxPoint x="335" y="550" as="targetPoint" />
          </mxGeometry>
        </mxCell>
        <mxCell id="OQLOy8tEcqYqoxx-tOox-14" value="监控储存&lt;br&gt;SATA硬盘&amp;nbsp;" style="shape=image;html=1;verticalAlign=top;verticalLabelPosition=bottom;labelBackgroundColor=#ffffff;imageAspect=0;aspect=fixed;image=https://cdn3.iconfinder.com/data/icons/humano2/128x128/devices/drive-harddisk-ieee1394.png" vertex="1" parent="1">
          <mxGeometry x="300" y="590" width="70" height="70" as="geometry" />
        </mxCell>
        <mxCell id="OQLOy8tEcqYqoxx-tOox-18" value="以太网 主播 4个频道&amp;nbsp; H.264/265&amp;nbsp;" style="text;html=1;strokeColor=none;fillColor=none;align=left;verticalAlign=middle;whiteSpace=wrap;rounded=0;" vertex="1" parent="1">
          <mxGeometry x="500" y="400" width="190" height="20" as="geometry" />
        </mxCell>
        <mxCell id="OQLOy8tEcqYqoxx-tOox-20" value="" style="edgeStyle=orthogonalEdgeStyle;rounded=0;orthogonalLoop=1;jettySize=auto;html=1;startArrow=classic;startFill=1;" edge="1" parent="1" source="OQLOy8tEcqYqoxx-tOox-21">
          <mxGeometry relative="1" as="geometry">
            <mxPoint x="425" y="550" as="targetPoint" />
          </mxGeometry>
        </mxCell>
        <mxCell id="OQLOy8tEcqYqoxx-tOox-21" value="媒体系统&lt;br&gt;SATA硬盘" style="shape=image;html=1;verticalAlign=top;verticalLabelPosition=bottom;labelBackgroundColor=#ffffff;imageAspect=0;aspect=fixed;image=https://cdn3.iconfinder.com/data/icons/humano2/128x128/devices/drive-harddisk-ieee1394.png" vertex="1" parent="1">
          <mxGeometry x="390" y="590" width="70" height="70" as="geometry" />
        </mxCell>
        <mxCell id="OQLOy8tEcqYqoxx-tOox-25" value="外部TF卡 数据文件" style="text;html=1;strokeColor=none;fillColor=none;align=right;verticalAlign=middle;whiteSpace=wrap;rounded=0;" vertex="1" parent="1">
          <mxGeometry x="150" y="477" width="130" height="20" as="geometry" />
        </mxCell>
        <mxCell id="OQLOy8tEcqYqoxx-tOox-34" value="" style="edgeStyle=orthogonalEdgeStyle;rounded=0;orthogonalLoop=1;jettySize=auto;html=1;startArrow=none;startFill=0;" edge="1" parent="1" source="OQLOy8tEcqYqoxx-tOox-25">
          <mxGeometry relative="1" as="geometry">
            <mxPoint x="290" y="457" as="sourcePoint" />
            <mxPoint x="313" y="487" as="targetPoint" />
          </mxGeometry>
        </mxCell>
        <mxCell id="OQLOy8tEcqYqoxx-tOox-39" value="" style="edgeStyle=orthogonalEdgeStyle;rounded=0;orthogonalLoop=1;jettySize=auto;html=1;startArrow=classic;startFill=1;entryX=0.152;entryY=-0.012;entryDx=0;entryDy=0;entryPerimeter=0;endArrow=none;endFill=0;" edge="1" parent="1" source="OQLOy8tEcqYqoxx-tOox-38">
          <mxGeometry relative="1" as="geometry">
            <mxPoint x="379.03999999999996" y="380.00000000000006" as="targetPoint" />
          </mxGeometry>
        </mxCell>
        <mxCell id="OQLOy8tEcqYqoxx-tOox-38" value="调试用&lt;br&gt;HDMI&amp;nbsp; 输出" style="pointerEvents=1;shadow=0;dashed=0;html=1;strokeColor=none;fillColor=#505050;labelPosition=center;verticalLabelPosition=bottom;verticalAlign=top;outlineConnect=0;align=center;shape=mxgraph.office.devices.lcd_monitor;" vertex="1" parent="1">
          <mxGeometry x="359" y="310" width="40" height="30.04" as="geometry" />
        </mxCell>
        <mxCell id="OQLOy8tEcqYqoxx-tOox-41" value="以太网 实时主播 1个频道&amp;nbsp; H.264/265&amp;nbsp;" style="text;html=1;strokeColor=none;fillColor=none;align=left;verticalAlign=middle;whiteSpace=wrap;rounded=0;" vertex="1" parent="1">
          <mxGeometry x="500" y="440" width="220" height="20" as="geometry" />
        </mxCell>
        <mxCell id="OQLOy8tEcqYqoxx-tOox-43" value="" style="edgeStyle=orthogonalEdgeStyle;rounded=0;orthogonalLoop=1;jettySize=auto;html=1;startArrow=classic;startFill=1;endArrow=none;endFill=0;entryX=1.007;entryY=0.647;entryDx=0;entryDy=0;entryPerimeter=0;" edge="1" parent="1" source="OQLOy8tEcqYqoxx-tOox-42">
          <mxGeometry relative="1" as="geometry">
            <mxPoint x="459.0149999999999" y="486.99" as="targetPoint" />
          </mxGeometry>
        </mxCell>
        <mxCell id="OQLOy8tEcqYqoxx-tOox-42" value="以太网 授权终端 管理/回看 监控内容" style="text;html=1;strokeColor=none;fillColor=none;align=left;verticalAlign=middle;whiteSpace=wrap;rounded=0;" vertex="1" parent="1">
          <mxGeometry x="500" y="477" width="220" height="20" as="geometry" />
        </mxCell>
        <mxCell id="OQLOy8tEcqYqoxx-tOox-44" value="" style="edgeStyle=orthogonalEdgeStyle;rounded=0;orthogonalLoop=1;jettySize=auto;html=1;startArrow=classic;startFill=1;endArrow=none;endFill=0;entryX=1.007;entryY=0.647;entryDx=0;entryDy=0;entryPerimeter=0;" edge="1" parent="1">
          <mxGeometry relative="1" as="geometry">
            <mxPoint x="500.99" y="449.5" as="sourcePoint" />
            <mxPoint x="460.0049999999999" y="449.5" as="targetPoint" />
          </mxGeometry>
        </mxCell>
        <mxCell id="OQLOy8tEcqYqoxx-tOox-45" value="" style="edgeStyle=orthogonalEdgeStyle;rounded=0;orthogonalLoop=1;jettySize=auto;html=1;startArrow=classic;startFill=1;endArrow=none;endFill=0;entryX=1.007;entryY=0.647;entryDx=0;entryDy=0;entryPerimeter=0;" edge="1" parent="1">
          <mxGeometry relative="1" as="geometry">
            <mxPoint x="500.99" y="409.5" as="sourcePoint" />
            <mxPoint x="460.0049999999999" y="409.5" as="targetPoint" />
          </mxGeometry>
        </mxCell>
        <mxCell id="OQLOy8tEcqYqoxx-tOox-46" value="系统内部硬盘 数据文件" style="text;html=1;strokeColor=none;fillColor=none;align=right;verticalAlign=middle;whiteSpace=wrap;rounded=0;" vertex="1" parent="1">
          <mxGeometry x="150" y="509" width="130" height="20" as="geometry" />
        </mxCell>
        <mxCell id="OQLOy8tEcqYqoxx-tOox-50" value="" style="edgeStyle=orthogonalEdgeStyle;rounded=0;orthogonalLoop=1;jettySize=auto;html=1;startArrow=none;startFill=0;" edge="1" parent="1">
          <mxGeometry relative="1" as="geometry">
            <mxPoint x="283" y="518.5" as="sourcePoint" />
            <mxPoint x="313" y="518.5" as="targetPoint" />
          </mxGeometry>
        </mxCell>
      </root>
    </mxGraphModel>
  </diagram>
</mxfile>
